Coordinates
version=1
nRows=14
nColumns=24
inDegrees=yes

Units are S.I. units (second, meters, Newtons, ...)
Angles are in degrees.

endheader
time	pelvis_tilt	pelvis_list	pelvis_rotation	pelvis_tx	pelvis_ty	pelvis_tz	hip_flexion_r	hip_adduction_r	hip_rotation_r	knee_angle_r	ankle_angle_r	subtalar_angle_r	mtp_angle_r	hip_flexion_l	hip_adduction_l	hip_rotation_l	knee_angle_l	ankle_angle_l	subtalar_angle_l	mtp_angle_l	lumbar_extension	lumbar_bending	lumbar_rotation
      1.30000000	     -4.26817269	     -0.65322642	     -1.73415130	      0.09517235	      0.96617368	      0.06434427	      8.19147527	      1.16663720	     -7.91149468	    -11.10410131	      6.79755900	      0.00000000	      0.00000000	     13.84693136	     -7.24572737	     -2.66000579	    -58.21688482	     -2.39347867	      0.00000000	      0.00000000	      0.02291682	      1.50366563	      0.35423194
      1.31000000	     -4.34185875	     -0.38564867	     -1.71085097	      0.09438929	      0.96672008	      0.06544043	      7.71752706	      0.94633849	     -7.99235375	    -10.88584505	      6.94137740	      0.00000000	      0.00000000	     14.80812775	     -6.90340329	     -2.53716411	    -57.87108307	     -1.66820185	      0.00000000	      0.00000000	      0.16637653	      1.09178390	      0.78369144
      1.32000000	     -4.42293530	     -0.08861224	     -1.69915212	      0.09347408	      0.96722208	      0.06642440	      7.29870350	      0.68115466	     -8.11623508	    -10.73847098	      7.04299379	      0.00000000	      0.00000000	     15.74245926	     -6.52068166	     -2.44411453	    -57.31472192	     -0.88328609	      0.00000000	      0.00000000	      0.28992314	      0.65361983	      1.20594516
      1.33000000	     -4.52359930	      0.20026435	     -1.68692386	      0.09259939	      0.96765911	      0.06740573	      6.87110217	      0.43240921	     -8.23437689	    -10.54064362	      7.18274984	      0.00000000	      0.00000000	     16.62982779	     -6.16865824	     -2.41407107	    -56.49636055	     -0.07440003	      0.00000000	      0.00000000	      0.43534218	      0.22041545	      1.59804820
      1.34000000	     -4.61859639	      0.48950801	     -1.68553150	      0.09160763	      0.96802211	      0.06827437	      6.49259880	      0.16765646	     -8.33402721	    -10.43606306	      7.29272592	      0.00000000	      0.00000000	     17.46998160	     -5.79736544	     -2.36444953	    -55.47489963	      0.72174622	      0.00000000	      0.00000000	      0.54442702	     -0.21380960	      1.99219322
      1.35000000	     -4.72833383	      0.81024749	     -1.68453371	      0.09059724	      0.96831461	      0.06908424	      6.13177089	     -0.13445196	     -8.41037127	    -10.32986636	      7.43802097	      0.00000000	      0.00000000	     18.25830346	     -5.41021930	     -2.36601792	    -54.21041131	      1.53315123	      0.00000000	      0.00000000	      0.66213419	     -0.68345368	      2.35889233
      1.36000000	     -4.83996762	      1.06375575	     -1.66569022	      0.08955734	      0.96851490	      0.06989251	      5.75947845	     -0.35453617	     -8.47159652	    -10.20120865	      7.62029805	      0.00000000	      0.00000000	     18.98208920	     -5.12775206	     -2.39965826	    -52.68889872	      2.22754176	      0.00000000	      0.00000000	      0.75583429	     -1.08685857	      2.68288828
      1.37000000	     -4.91441864	      1.04759048	     -1.58624133	      0.08835527	      0.96863268	      0.07066116	      5.38917090	     -0.28762210	     -8.52392117	    -10.18462613	      7.77540283	      0.00000000	      0.00000000	     19.68595885	     -5.15603322	     -2.37181094	    -51.06153223	      2.59538596	      0.00000000	      0.00000000	      0.75415459	     -1.19347101	      2.90439545
      1.38000000	     -5.01196050	      1.58597437	     -1.61190301	      0.08740441	      0.96872284	      0.07122011	      4.99830395	     -0.83007496	     -8.53607792	    -10.01119195	      8.01245595	      0.00000000	      0.00000000	     20.17071070	     -4.58453536	     -2.56872142	    -48.97304160	      3.28041590	      0.00000000	      0.00000000	      0.83480468	     -1.90695059	      3.22786194
      1.39000000	     -5.13282916	      1.51225665	     -1.50024394	      0.08619929	      0.96858028	      0.07179686	      4.64106069	     -0.70235310	     -8.57472409	     -9.91657097	      8.22462354	      0.00000000	      0.00000000	     20.81462593	     -4.69816020	     -2.57661279	    -46.99593515	      3.58537587	      0.00000000	      0.00000000	      0.86596050	     -1.94460611	      3.37556145
      1.40000000	     -5.21376818	      1.89286326	     -1.47616577	      0.08525026	      0.96852218	      0.07218309	      4.18074475	     -1.07666150	     -8.57782048	     -9.65050561	      8.42738371	      0.00000000	      0.00000000	     21.15409280	     -4.33583923	     -2.77965317	    -44.51725092	      3.80784270	      0.00000000	      0.00000000	      0.90003883	     -2.47977496	      3.62119117
      1.41000000	     -5.36207540	      1.73361588	     -1.29817336	      0.08401246	      0.96810886	      0.07252173	      3.86464175	     -0.86585712	     -8.59862613	     -9.59682577	      8.65106200	      0.00000000	      0.00000000	     21.72098203	     -4.56655111	     -2.85175007	    -42.25940559	      4.00894166	      0.00000000	      0.00000000	      0.93025841	     -2.41604749	      3.62948582
      1.42000000	     -5.54568275	      1.73762143	     -1.19799297	      0.08296404	      0.96762688	      0.07273071	      3.50161491	     -0.83013296	     -8.63698210	     -9.32776838	      8.88722696	      0.00000000	      0.00000000	     22.15814395	     -4.62332861	     -2.95606586	    -39.69962616	      4.03195087	      0.00000000	      0.00000000	      1.03926640	     -2.51825352	      3.77913394
      1.43000000	     -5.72197734	      1.64389651	     -1.01598760	      0.08184565	      0.96705537	      0.07282185	      3.17935421	     -0.69886004	     -8.65519234	     -9.20120886	      9.09247100	      0.00000000	      0.00000000	     22.56991042	     -4.78633974	     -3.13170906	    -37.07297070	      4.05784374	      0.00000000	      0.00000000	      1.11315941	     -2.52071375	      3.76224796
